<svg width="18" height="19" viewBox="0 0 18 19" fill="none" xmlns="http://www.w3.org/2000/svg">
<path d="M13.0001 6H14.1598C15.2 6 16.0665 6.79732 16.1529 7.83391L16.8196 15.8339C16.9168 16.9999 15.9966 18 14.8265 18H3.17372C2.00364 18 1.08346 16.9999 1.18063 15.8339L1.8473 7.83391C1.93368 6.79732 2.80021 6 3.84039 6H5.00012M13.0001 6H5.00012M13.0001 6V5C13.0001 3.93913 12.5787 2.92172 11.8285 2.17157C11.0784 1.42143 10.061 1 9.00012 1C7.93922 1 6.92184 1.42143 6.17169 2.17157C5.42155 2.92172 5.00012 3.93913 5.00012 5V6M13.0001 6V10M5.00012 6V10" stroke="#6A6466" stroke-width="1.5" stroke-linecap="round" stroke-linejoin="round"/>
</svg>
