<svg width="14" height="19" viewBox="0 0 14 19" fill="none" xmlns="http://www.w3.org/2000/svg">
<path d="M6.84809 8.61181C6.76228 8.60323 6.6593 8.60323 6.5649 8.61181C4.52254 8.54316 2.90063 6.86976 2.90063 4.8102C2.90063 2.70772 4.59978 1 6.71079 1C8.81326 1 10.521 2.70772 10.521 4.8102C10.5124 6.86976 8.8905 8.54316 6.84809 8.61181Z" stroke="#6A6466" stroke-width="1.5" stroke-linecap="round" stroke-linejoin="round"/>
<path d="M2.55755 11.7784C0.480818 13.1686 0.480818 15.4341 2.55755 16.8158C4.91747 18.3948 8.78773 18.3948 11.1477 16.8158C13.2244 15.4255 13.2244 13.16 11.1477 11.7784C8.79632 10.208 4.92605 10.208 2.55755 11.7784Z" stroke="#6A6466" stroke-width="1.5" stroke-linecap="round" stroke-linejoin="round"/>
</svg>
